<?xml version="1.0" encoding="UTF-8" standalone="no"?>
<!-- Created with Inkscape (http://www.inkscape.org/) -->

<svg
   width="114.62295mm"
   height="36.580025mm"
   viewBox="0 0 114.62295 36.580025"
   version="1.1"
   id="svg1"
   xml:space="preserve"
   xmlns="http://www.w3.org/2000/svg"
   xmlns:svg="http://www.w3.org/2000/svg"><defs
     id="defs1"><linearGradient
       id="swatch20"><stop
         style="stop-color:#ff0000;stop-opacity:0.65235171;"
         offset="0"
         id="stop20" /></linearGradient></defs><g
     id="layer1"
     transform="translate(-45.507287,-92.230439)"
     style="display:inline"><path
       style="display:inline;fill:none;fill-opacity:1;stroke:#ea5763;stroke-width:2.3;stroke-linecap:round;stroke-dasharray:none;stroke-opacity:1"
       d="m 52.001866,117.97841 h 14.00441"
       id="path2-53" /><path
       style="display:inline;fill:none;fill-opacity:1;stroke:#ea5763;stroke-width:2.3;stroke-linecap:round;stroke-dasharray:none;stroke-opacity:1"
       d="m 48.211386,114.46442 h 14.29485"
       id="path2-5-6" /><path
       style="display:inline;fill:none;fill-opacity:1;stroke:#ea5763;stroke-width:2.3;stroke-linecap:round;stroke-dasharray:none;stroke-opacity:1"
       d="m 47.403086,110.95042 h 12.6703"
       id="path2-5-1-8" /><path
       style="display:inline;fill:none;fill-opacity:1;stroke:#ea5763;stroke-width:2.3;stroke-linecap:round;stroke-dasharray:none;stroke-opacity:1"
       d="m 46.657286,107.43642 h 21.23383"
       id="path2-5-14-2" /><path
       style="display:inline;fill:none;fill-opacity:1;stroke:#ea5763;stroke-width:2.3;stroke-linecap:round;stroke-dasharray:none;stroke-opacity:1"
       d="m 48.643266,103.92242 h 18.4251"
       id="path2-5-16-6" /><path
       style="display:inline;fill:none;fill-opacity:1;stroke:#ea5763;stroke-width:2.3;stroke-linecap:round;stroke-dasharray:none;stroke-opacity:1"
       d="m 50.125026,100.40843 27.29266,-2e-5"
       id="path2-5-18-3" /><path
       style="display:inline;fill:none;fill-opacity:1;stroke:#ea5763;stroke-width:2.3;stroke-linecap:round;stroke-dasharray:none;stroke-opacity:1"
       d="m 50.330716,96.89443 h 14.22338"
       id="path2-5-5-8" /><path
       id="path257-7-7"
       style="display:inline;fill:#ea5763;fill-opacity:1;stroke-width:0.0461014"
       d="m 89.487616,100.40136 v 0 c -0.007,-0.26706 -0.37527,-0.54337 -0.98902,-0.73918 -0.37483,-0.11944 -1.20406,-0.17948 -2.45963,-0.17815 -0.45964,0 -0.88186,-0.0245 -0.93842,-0.0564 -0.0564,-0.0314 -0.77155,-1.13162 -1.58916,-2.44503 -1.40966,-2.26425 -1.49907,-2.39572 -1.73118,-2.54814 -0.36557,-0.23968 -0.82085,-0.2542 -1.15512,-0.0368 -0.12918,0.084 -0.14046,0.10473 -0.1418,0.26081 0,0.0932 0.14862,0.59303 0.33213,1.11068 0.64138,1.8091 0.8955,2.6161 0.96421,3.06132 0.038,0.24677 0.0555,0.46567 0.039,0.48712 -0.0166,0.021 -0.72452,0.0625 -1.57307,0.0917 -1.31602,0.0451 -1.54948,0.0396 -1.58703,-0.0385 -0.4763,-0.99487 -0.47787,-0.99735 -0.69309,-1.14449 -0.24364,-0.16628 -0.47965,-0.19828 -0.68518,-0.0931 l 0.002,2.2753 -0.002,2.27511 c 0.20553,0.10546 0.44154,0.0735 0.68518,-0.0928 0.0807,-0.0554 0.13143,-0.0903 0.1883,-0.16463 0.019,-0.0249 0.0386,-0.0541 0.0604,-0.0899 0.0868,-0.14334 0.20632,-0.3926 0.44445,-0.89029 0.005,-0.01 0.0123,-0.0183 0.025,-0.0259 0.0124,-0.006 0.0299,-0.0148 0.0537,-0.0194 0.0478,-0.011 0.12158,-0.0174 0.23537,-0.0202 0.22763,-0.005 0.61498,0.005 1.27298,0.0272 0.84855,0.0292 1.55653,0.0706 1.57306,0.0916 0.0165,0.0215 0,0.2405 -0.039,0.48728 -0.0172,0.11098 -0.046,0.24497 -0.0894,0.41174 -0.0436,0.16645 -0.10179,0.36539 -0.17791,0.60722 -0.15232,0.48383 -0.37615,1.13757 -0.6969,2.04237 -0.0458,0.12965 -0.0896,0.25766 -0.12931,0.37875 -0.0795,0.24232 -0.14314,0.45595 -0.17679,0.59187 -0.0167,0.0679 -0.026,0.11675 -0.026,0.14005 0,0.0975 0.009,0.14154 0.0442,0.18196 0.007,0.006 0.0116,0.0164 0.0213,0.0248 0.0192,0.0164 0.0442,0.0331 0.0764,0.0541 0.16707,0.10889 0.36456,0.15934 0.56582,0.15274 0.10068,-0.004 0.20228,-0.0202 0.30162,-0.052 0.0993,-0.0316 0.19627,-0.0777 0.28768,-0.13757 0.029,-0.019 0.0558,-0.0379 0.0831,-0.0603 0.0275,-0.0228 0.0555,-0.0492 0.087,-0.0838 0.18909,-0.20736 0.50369,-0.70586 1.56099,-2.40396 0.81761,-1.31324 1.53273,-2.41369 1.58915,-2.4452 0.0142,-0.006 0.0511,-0.0148 0.10585,-0.0221 0.16417,-0.0204 0.48782,-0.0341 0.83258,-0.0341 0.31392,0 0.60113,-0.005 0.86129,-0.01 0.26019,-0.006 0.4933,-0.0185 0.6988,-0.0335 0.20552,-0.0148 0.38357,-0.0335 0.53365,-0.0558 0.15007,-0.0227 0.27221,-0.0487 0.36589,-0.0787 0.0775,-0.0245 0.15097,-0.0506 0.22049,-0.0779 0.0247,-0.01 0.046,-0.02 0.0696,-0.0298 0.0425,-0.0179 0.086,-0.0353 0.12504,-0.054 0.0319,-0.0148 0.0597,-0.0315 0.0892,-0.0473 0.0265,-0.0148 0.0548,-0.0277 0.0792,-0.0421 0.0317,-0.0188 0.0586,-0.038 0.0868,-0.0574 0.0178,-0.011 0.038,-0.0243 0.0544,-0.0364 0.0272,-0.0205 0.0493,-0.0414 0.0724,-0.0622 0.0132,-0.011 0.0284,-0.0233 0.0402,-0.035 0.022,-0.0221 0.039,-0.0449 0.0564,-0.0673 0.008,-0.01 0.0186,-0.0212 0.0257,-0.0319 0.0216,-0.0324 0.0387,-0.0649 0.0503,-0.0974 0.0119,-0.0335 0.0184,-0.0668 0.0191,-0.10043 0,0 0,0 0,0 v 0 -0.006 -0.006 z" /><path
       style="display:inline;fill:none;fill-opacity:1;stroke:#ea5763;stroke-width:2.3;stroke-linecap:round;stroke-linejoin:miter;stroke-dasharray:none;stroke-opacity:1"
       d="m 53.299306,93.38044 h 3.62292"
       id="path2-5-3-9" /><path
       style="display:inline;fill:none;fill-opacity:1;stroke:#ea5763;stroke-width:2.3;stroke-linecap:round;stroke-dasharray:none;stroke-opacity:1"
       d="m 50.795156,121.49241 h 11.04554"
       id="path2-5-38-7" /><path
       d="m 79.032694,122.63259 -5.953789,-15.2 h 3.457039 l 3.950901,10.70036 3.950902,-10.70036 h 3.484476 l -5.981226,15.2 z m 15.035375,0.32924 q -1.536461,0 -2.716244,-0.54873 -1.152347,-0.54874 -1.81083,-1.50903 -0.631047,-0.96029 -0.631047,-2.27725 0,-1.23466 0.548736,-2.22239 0.548737,-0.98772 1.701083,-1.64621 1.152346,-0.68592 2.880866,-0.98772 l 4.856316,-0.76823 v -0.60361 q 0,-1.12491 -0.850541,-1.83827 -0.823105,-0.71336 -2.194945,-0.71336 -1.262094,0 -2.222383,0.65849 -0.932851,0.65848 -1.37184,1.70108 l -2.633935,-1.31697 q 0.411552,-1.12491 1.371841,-1.97545 0.960289,-0.85054 2.222382,-1.31696 1.289531,-0.49387 2.716245,-0.49387 1.81083,0 3.182671,0.68592 1.399276,0.65849 2.167506,1.86571 0.76823,1.17978 0.76823,2.74368 v 10.23393 h -3.018047 v -1.75596 q -0.329241,0.38412 -0.713357,0.71336 -0.823104,0.65849 -1.89314,1.01516 -1.070036,0.35668 -2.359567,0.35668 z m 4.82888,-7.46281 -4.22527,0.74079 q -1.262093,0.2195 -1.865703,0.79567 -0.576173,0.57617 -0.576173,1.45415 0,0.87798 0.658483,1.42672 0.658484,0.54873 1.701083,0.54873 1.28953,0 2.249819,-0.54873 0.987725,-0.57618 1.509025,-1.50903 0.548736,-0.93285 0.548736,-2.0852 z m 5.459931,-8.06643 h 2.66137 v -3.48447 h 3.18267 v 3.48447 h 3.45704 v 2.85343 h -3.45704 v 7.24332 q 0,0.79567 0.24693,1.34441 0.24693,0.5213 0.79567,0.8231 0.57617,0.30181 1.48158,0.30181 0.2195,0 0.49387,-0.0274 0.27437,-0.0274 0.54873,-0.0549 v 2.71624 q -0.38411,0.0549 -0.87797,0.10975 -0.46643,0.0549 -0.85055,0.0549 -2.387,0 -3.70397,-1.3444 -1.31696,-1.34441 -1.31696,-3.78628 v -7.38051 h -2.66137 v -2.85343 z m 19.37039,11.74296 q 1.26209,0 2.22238,-0.60361 0.98773,-0.60361 1.5639,-1.61877 0.57617,-1.0426 0.57617,-2.33213 0,-1.28953 -0.60361,-2.33213 -0.57617,-1.0426 -1.56389,-1.64621 -0.96029,-0.60361 -2.19495,-0.60361 -1.28953,0 -2.30469,0.60361 -1.01516,0.60361 -1.59134,1.64621 -0.57617,1.01516 -0.57617,2.33213 0,1.26209 0.57617,2.30469 0.57618,1.0426 1.59134,1.64621 1.01516,0.60361 2.30469,0.60361 z m 0.16462,9.63033 q -1.64621,0 -3.07292,-0.54874 -1.39928,-0.5213 -2.41444,-1.45415 -1.01516,-0.93285 -1.50903,-2.19495 l 2.90831,-1.20722 q 0.38411,1.07004 1.45415,1.75596 1.07003,0.71336 2.60649,0.71336 1.20722,0 2.14008,-0.46643 0.96028,-0.46643 1.50902,-1.37184 0.57617,-0.87798 0.57617,-2.11264 v -1.89314 q -0.65848,0.82311 -1.59133,1.34441 -1.37184,0.76823 -3.15523,0.76823 -2.11264,0 -3.78629,-0.98773 -1.67364,-0.98772 -2.66137,-2.6888 -0.96029,-1.72852 -0.96029,-3.8686 0,-2.1675 0.96029,-3.84115 0.98773,-1.70108 2.63394,-2.66137 1.67364,-0.98773 3.78628,-0.98773 1.72852,0 3.10036,0.7408 1.07003,0.57617 1.83827,1.5639 v -1.97546 h 2.99061 v 14.48664 q 0,1.97545 -0.93285,3.53935 -0.93286,1.5639 -2.6065,2.44188 -1.64621,0.90542 -3.81372,0.90542 z m 18.19061,-5.84405 q -2.27725,0 -4.03321,-1.0426 -1.75596,-1.07003 -2.74368,-2.88086 -0.98773,-1.81083 -0.98773,-4.06065 0,-2.30469 0.98773,-4.06065 1.01516,-1.78339 2.68881,-2.79855 1.70108,-1.01517 3.81371,-1.01517 1.70109,0 3.04549,0.60361 1.37184,0.57618 2.30469,1.59134 0.93285,1.01516 1.42672,2.35956 0.49386,1.31697 0.49386,2.79856 0,0.35668 -0.0274,0.76823 -0.0274,0.38412 -0.10974,0.71336 H 137.6103 q 0.0549,0.93285 0.46643,1.75595 0.57617,1.15235 1.61877,1.81083 1.07003,0.65849 2.41444,0.65849 1.37184,0 2.33213,-0.60361 0.98772,-0.63105 1.53646,-1.61877 l 2.57906,1.26209 q -0.43899,1.07003 -1.39928,1.92058 -0.93285,0.85054 -2.24982,1.3444 -1.28953,0.49386 -2.82599,0.49386 z m 3.6491,-9.54801 q -0.0274,-0.71336 -0.30181,-1.31697 -0.46642,-1.09747 -1.39927,-1.70108 -0.93286,-0.63105 -2.22239,-0.63105 -1.26209,0 -2.24982,0.63105 -0.93285,0.65848 -1.48158,1.81083 -0.24694,0.54874 -0.38412,1.20722 z m 6.42021,9.21877 v -15.2 h 3.01805 v 1.94802 q 0.49387,-0.98773 1.34441,-1.48159 1.12491,-0.65848 2.71624,-0.65848 h 0.90542 v 2.88086 h -1.31697 q -1.5639,0 -2.55162,0.98773 -0.96029,0.96029 -0.96029,2.77112 v 8.75234 z"
       id="text204"
       style="font-weight:600;font-size:28.0953px;line-height:0.9;font-family:Vatger;-inkscape-font-specification:'Vatger Semi-Bold';letter-spacing:0px;fill:#2b3f55;stroke-width:0.190967;stroke-miterlimit:4.7;paint-order:fill markers stroke"
       transform="scale(0.9999644,1.0000356)"
       aria-label="vatger" /></g></svg>
